<mxfile host="Electron" modified="2024-03-02T13:36:33.341Z" agent="Mozilla/5.0 (X11; Linux x86_64) AppleWebKit/537.36 (KHTML, like Gecko) draw.io/23.1.5 Chrome/120.0.6099.109 Electron/28.1.0 Safari/537.36" etag="-IhrVQ0AA37Zi18xUuHO" version="23.1.5" type="device">
  <diagram name="Page-1" id="FMdamfK5XE-0MwFOK_RJ">
    <mxGraphModel dx="1364" dy="843" grid="1" gridSize="10" guides="1" tooltips="1" connect="1" arrows="1" fold="1" page="1" pageScale="1" pageWidth="5000" pageHeight="5000" math="0" shadow="0">
      <root>
        <mxCell id="0" />
        <mxCell id="1" parent="0" />
        <mxCell id="Ds9C-K3KdqGEEO9587zF-10" value="TaskManager" style="swimlane;whiteSpace=wrap;html=1;" vertex="1" parent="1">
          <mxGeometry x="40" y="20" width="770" height="414" as="geometry" />
        </mxCell>
        <mxCell id="Ds9C-K3KdqGEEO9587zF-11" value="abstract Task[TaskSubjectGeneric]" style="swimlane;fontStyle=1;align=center;verticalAlign=top;childLayout=stackLayout;horizontal=1;startSize=26;horizontalStack=0;resizeParent=1;resizeParentMax=0;resizeLast=0;collapsible=1;marginBottom=0;whiteSpace=wrap;html=1;" vertex="1" parent="Ds9C-K3KdqGEEO9587zF-10">
          <mxGeometry x="400" y="44" width="330" height="210" as="geometry" />
        </mxCell>
        <mxCell id="Ds9C-K3KdqGEEO9587zF-12" value="logger: logging.Logger | None" style="text;strokeColor=none;fillColor=none;align=left;verticalAlign=top;spacingLeft=4;spacingRight=4;overflow=hidden;rotatable=0;points=[[0,0.5],[1,0.5]];portConstraint=eastwest;whiteSpace=wrap;html=1;" vertex="1" parent="Ds9C-K3KdqGEEO9587zF-11">
          <mxGeometry y="26" width="330" height="26" as="geometry" />
        </mxCell>
        <mxCell id="Ds9C-K3KdqGEEO9587zF-13" value="subject: TaskSubjectGeneric | None" style="text;strokeColor=none;fillColor=none;align=left;verticalAlign=top;spacingLeft=4;spacingRight=4;overflow=hidden;rotatable=0;points=[[0,0.5],[1,0.5]];portConstraint=eastwest;whiteSpace=wrap;html=1;" vertex="1" parent="Ds9C-K3KdqGEEO9587zF-11">
          <mxGeometry y="52" width="330" height="26" as="geometry" />
        </mxCell>
        <mxCell id="Ds9C-K3KdqGEEO9587zF-14" value="exception_handler:&amp;nbsp;Callable[[Exception, Task], None]" style="text;strokeColor=none;fillColor=none;align=left;verticalAlign=top;spacingLeft=4;spacingRight=4;overflow=hidden;rotatable=0;points=[[0,0.5],[1,0.5]];portConstraint=eastwest;whiteSpace=wrap;html=1;" vertex="1" parent="Ds9C-K3KdqGEEO9587zF-11">
          <mxGeometry y="78" width="330" height="26" as="geometry" />
        </mxCell>
        <mxCell id="Ds9C-K3KdqGEEO9587zF-15" value="" style="line;strokeWidth=1;fillColor=none;align=left;verticalAlign=middle;spacingTop=-1;spacingLeft=3;spacingRight=3;rotatable=0;labelPosition=right;points=[];portConstraint=eastwest;strokeColor=inherit;" vertex="1" parent="Ds9C-K3KdqGEEO9587zF-11">
          <mxGeometry y="104" width="330" height="8" as="geometry" />
        </mxCell>
        <mxCell id="Ds9C-K3KdqGEEO9587zF-16" value="abstract async task() -&amp;gt; Awaitable" style="text;strokeColor=none;fillColor=none;align=left;verticalAlign=top;spacingLeft=4;spacingRight=4;overflow=hidden;rotatable=0;points=[[0,0.5],[1,0.5]];portConstraint=eastwest;whiteSpace=wrap;html=1;" vertex="1" parent="Ds9C-K3KdqGEEO9587zF-11">
          <mxGeometry y="112" width="330" height="26" as="geometry" />
        </mxCell>
        <mxCell id="Ds9C-K3KdqGEEO9587zF-17" value="async def run() -&amp;gt; Awaitable" style="text;strokeColor=none;fillColor=none;align=left;verticalAlign=top;spacingLeft=4;spacingRight=4;overflow=hidden;rotatable=0;points=[[0,0.5],[1,0.5]];portConstraint=eastwest;whiteSpace=wrap;html=1;" vertex="1" parent="Ds9C-K3KdqGEEO9587zF-11">
          <mxGeometry y="138" width="330" height="26" as="geometry" />
        </mxCell>
        <mxCell id="Ds9C-K3KdqGEEO9587zF-18" value="attach_task_manager(manager: TaskManager[TaskSubjectGeneric]) -&amp;gt; None" style="text;strokeColor=none;fillColor=none;align=left;verticalAlign=top;spacingLeft=4;spacingRight=4;overflow=hidden;rotatable=0;points=[[0,0.5],[1,0.5]];portConstraint=eastwest;whiteSpace=wrap;html=1;" vertex="1" parent="Ds9C-K3KdqGEEO9587zF-11">
          <mxGeometry y="164" width="330" height="46" as="geometry" />
        </mxCell>
        <mxCell id="Ds9C-K3KdqGEEO9587zF-19" value="TaskManager[TaskSubjectGeneric]" style="swimlane;fontStyle=1;align=center;verticalAlign=top;childLayout=stackLayout;horizontal=1;startSize=26;horizontalStack=0;resizeParent=1;resizeParentMax=0;resizeLast=0;collapsible=1;marginBottom=0;whiteSpace=wrap;html=1;" vertex="1" parent="Ds9C-K3KdqGEEO9587zF-10">
          <mxGeometry x="50" y="44" width="260" height="320" as="geometry" />
        </mxCell>
        <mxCell id="Ds9C-K3KdqGEEO9587zF-20" value="identifier: string" style="text;strokeColor=none;fillColor=none;align=left;verticalAlign=top;spacingLeft=4;spacingRight=4;overflow=hidden;rotatable=0;points=[[0,0.5],[1,0.5]];portConstraint=eastwest;whiteSpace=wrap;html=1;" vertex="1" parent="Ds9C-K3KdqGEEO9587zF-19">
          <mxGeometry y="26" width="260" height="26" as="geometry" />
        </mxCell>
        <mxCell id="Ds9C-K3KdqGEEO9587zF-21" value="subject: TaskSubjectGeneric" style="text;strokeColor=none;fillColor=none;align=left;verticalAlign=top;spacingLeft=4;spacingRight=4;overflow=hidden;rotatable=0;points=[[0,0.5],[1,0.5]];portConstraint=eastwest;whiteSpace=wrap;html=1;" vertex="1" parent="Ds9C-K3KdqGEEO9587zF-19">
          <mxGeometry y="52" width="260" height="26" as="geometry" />
        </mxCell>
        <mxCell id="Ds9C-K3KdqGEEO9587zF-22" value="logger: logging.Logger" style="text;strokeColor=none;fillColor=none;align=left;verticalAlign=top;spacingLeft=4;spacingRight=4;overflow=hidden;rotatable=0;points=[[0,0.5],[1,0.5]];portConstraint=eastwest;whiteSpace=wrap;html=1;" vertex="1" parent="Ds9C-K3KdqGEEO9587zF-19">
          <mxGeometry y="78" width="260" height="26" as="geometry" />
        </mxCell>
        <mxCell id="Ds9C-K3KdqGEEO9587zF-23" value="run_interval: int" style="text;strokeColor=none;fillColor=none;align=left;verticalAlign=top;spacingLeft=4;spacingRight=4;overflow=hidden;rotatable=0;points=[[0,0.5],[1,0.5]];portConstraint=eastwest;whiteSpace=wrap;html=1;" vertex="1" parent="Ds9C-K3KdqGEEO9587zF-19">
          <mxGeometry y="104" width="260" height="26" as="geometry" />
        </mxCell>
        <mxCell id="Ds9C-K3KdqGEEO9587zF-24" style="edgeStyle=orthogonalEdgeStyle;rounded=0;orthogonalLoop=1;jettySize=auto;html=1;exitX=0;exitY=0.5;exitDx=0;exitDy=0;entryX=0;entryY=0.5;entryDx=0;entryDy=0;" edge="1" parent="Ds9C-K3KdqGEEO9587zF-19" source="Ds9C-K3KdqGEEO9587zF-25" target="Ds9C-K3KdqGEEO9587zF-29">
          <mxGeometry relative="1" as="geometry">
            <mxPoint x="-30" y="200" as="targetPoint" />
            <Array as="points">
              <mxPoint y="150" />
              <mxPoint x="-30" y="150" />
              <mxPoint x="-30" y="203" />
            </Array>
          </mxGeometry>
        </mxCell>
        <mxCell id="Ds9C-K3KdqGEEO9587zF-25" value="task_list: dict[str, Task]" style="text;strokeColor=none;fillColor=none;align=left;verticalAlign=top;spacingLeft=4;spacingRight=4;overflow=hidden;rotatable=0;points=[[0,0.5],[1,0.5]];portConstraint=eastwest;whiteSpace=wrap;html=1;" vertex="1" parent="Ds9C-K3KdqGEEO9587zF-19">
          <mxGeometry y="130" width="260" height="26" as="geometry" />
        </mxCell>
        <mxCell id="Ds9C-K3KdqGEEO9587zF-26" value="" style="line;strokeWidth=1;fillColor=none;align=left;verticalAlign=middle;spacingTop=-1;spacingLeft=3;spacingRight=3;rotatable=0;labelPosition=right;points=[];portConstraint=eastwest;strokeColor=inherit;" vertex="1" parent="Ds9C-K3KdqGEEO9587zF-19">
          <mxGeometry y="156" width="260" height="8" as="geometry" />
        </mxCell>
        <mxCell id="Ds9C-K3KdqGEEO9587zF-27" style="edgeStyle=orthogonalEdgeStyle;rounded=0;orthogonalLoop=1;jettySize=auto;html=1;exitX=1;exitY=0.5;exitDx=0;exitDy=0;entryX=1;entryY=0.5;entryDx=0;entryDy=0;" edge="1" parent="Ds9C-K3KdqGEEO9587zF-19" source="Ds9C-K3KdqGEEO9587zF-28" target="Ds9C-K3KdqGEEO9587zF-25">
          <mxGeometry relative="1" as="geometry">
            <mxPoint x="290" y="150" as="targetPoint" />
            <Array as="points">
              <mxPoint x="260" y="180" />
              <mxPoint x="290" y="180" />
              <mxPoint x="290" y="143" />
            </Array>
          </mxGeometry>
        </mxCell>
        <mxCell id="Ds9C-K3KdqGEEO9587zF-28" value="attach_task(task_id: str, task: Task) -&amp;gt; None" style="text;strokeColor=none;fillColor=none;align=left;verticalAlign=top;spacingLeft=4;spacingRight=4;overflow=hidden;rotatable=0;points=[[0,0.5],[1,0.5]];portConstraint=eastwest;whiteSpace=wrap;html=1;" vertex="1" parent="Ds9C-K3KdqGEEO9587zF-19">
          <mxGeometry y="164" width="260" height="26" as="geometry" />
        </mxCell>
        <mxCell id="Ds9C-K3KdqGEEO9587zF-29" value="async run() -&amp;gt; Awaitable" style="text;strokeColor=none;fillColor=none;align=left;verticalAlign=top;spacingLeft=4;spacingRight=4;overflow=hidden;rotatable=0;points=[[0,0.5],[1,0.5]];portConstraint=eastwest;whiteSpace=wrap;html=1;" vertex="1" parent="Ds9C-K3KdqGEEO9587zF-19">
          <mxGeometry y="190" width="260" height="26" as="geometry" />
        </mxCell>
        <mxCell id="Ds9C-K3KdqGEEO9587zF-30" value="start() -&amp;gt; None" style="text;strokeColor=none;fillColor=none;align=left;verticalAlign=top;spacingLeft=4;spacingRight=4;overflow=hidden;rotatable=0;points=[[0,0.5],[1,0.5]];portConstraint=eastwest;whiteSpace=wrap;html=1;" vertex="1" parent="Ds9C-K3KdqGEEO9587zF-19">
          <mxGeometry y="216" width="260" height="26" as="geometry" />
        </mxCell>
        <mxCell id="Ds9C-K3KdqGEEO9587zF-31" value="async kill() -&amp;gt; None" style="text;strokeColor=none;fillColor=none;align=left;verticalAlign=top;spacingLeft=4;spacingRight=4;overflow=hidden;rotatable=0;points=[[0,0.5],[1,0.5]];portConstraint=eastwest;whiteSpace=wrap;html=1;" vertex="1" parent="Ds9C-K3KdqGEEO9587zF-19">
          <mxGeometry y="242" width="260" height="26" as="geometry" />
        </mxCell>
        <mxCell id="Ds9C-K3KdqGEEO9587zF-32" value="get_logger() -&amp;gt; logging.Logger | None" style="text;strokeColor=none;fillColor=none;align=left;verticalAlign=top;spacingLeft=4;spacingRight=4;overflow=hidden;rotatable=0;points=[[0,0.5],[1,0.5]];portConstraint=eastwest;whiteSpace=wrap;html=1;" vertex="1" parent="Ds9C-K3KdqGEEO9587zF-19">
          <mxGeometry y="268" width="260" height="26" as="geometry" />
        </mxCell>
        <mxCell id="Ds9C-K3KdqGEEO9587zF-33" value="get_subject() -&amp;gt; TaskSubjectGeneric" style="text;strokeColor=none;fillColor=none;align=left;verticalAlign=top;spacingLeft=4;spacingRight=4;overflow=hidden;rotatable=0;points=[[0,0.5],[1,0.5]];portConstraint=eastwest;whiteSpace=wrap;html=1;" vertex="1" parent="Ds9C-K3KdqGEEO9587zF-19">
          <mxGeometry y="294" width="260" height="26" as="geometry" />
        </mxCell>
        <mxCell id="Ds9C-K3KdqGEEO9587zF-34" value="" style="endArrow=diamondThin;endFill=1;endSize=24;html=1;rounded=0;exitX=1;exitY=0.5;exitDx=0;exitDy=0;" edge="1" parent="Ds9C-K3KdqGEEO9587zF-10" source="Ds9C-K3KdqGEEO9587zF-25" target="Ds9C-K3KdqGEEO9587zF-11">
          <mxGeometry width="160" relative="1" as="geometry">
            <mxPoint x="430" y="430" as="sourcePoint" />
            <mxPoint x="440" y="200" as="targetPoint" />
          </mxGeometry>
        </mxCell>
      </root>
    </mxGraphModel>
  </diagram>
</mxfile>
